<svg xmlns="http://www.w3.org/2000/svg" viewBox="0 0 1200 500" role="img" aria-label="Car door and seat illustration">
  <defs>
    <linearGradient id="bg" x1="0" y1="0" x2="1" y2="1">
      <stop offset="0" stop-color="#22315e"/>
      <stop offset="1" stop-color="#101a3a"/>
    </linearGradient>
  </defs>
  <rect width="1200" height="500" fill="url(#bg)"/>
  <circle cx="920" cy="250" r="170" fill="none" stroke="#c9a84c" stroke-width="3" opacity="0.5"/>
  <circle cx="920" cy="250" r="220" fill="none" stroke="#c9a84c" stroke-width="2" opacity="0.3"/>
  <circle cx="920" cy="250" r="270" fill="none" stroke="#c9a84c" stroke-width="1.5" opacity="0.18"/>
  <path d="M812 372 q-18 0 -18 -20 v-90 q0 -34 30 -52 l56 -34 q20 -12 48 -12 h120 q30 0 48 22 l38 46" stroke="#f5efdf" stroke-width="9" fill="none" stroke-linecap="round"/>
  <path d="M886 240 l50 -32 q12 -8 28 -8 h56 v40 z" fill="none" stroke="#c9a84c" stroke-width="7" stroke-linejoin="round"/>
  <circle cx="880" cy="372" r="26" fill="none" stroke="#c9a84c" stroke-width="9"/>
  <circle cx="1042" cy="372" r="26" fill="none" stroke="#c9a84c" stroke-width="9"/>
  <g opacity="0.35" stroke="#f5efdf" stroke-width="3" fill="none" stroke-linecap="round">
    <path d="M120 360 h180"/>
    <path d="M120 320 h120"/>
    <path d="M120 400 h240"/>
  </g>
</svg>
