<svg xmlns="http://www.w3.org/2000/svg" viewBox="0 0 1200 500" role="img" aria-label="Telephone handset with an alert mark illustration">
  <defs>
    <linearGradient id="bg" x1="0" y1="0" x2="1" y2="1">
      <stop offset="0" stop-color="#22315e"/>
      <stop offset="1" stop-color="#101a3a"/>
    </linearGradient>
  </defs>
  <rect width="1200" height="500" fill="url(#bg)"/>
  <circle cx="920" cy="250" r="170" fill="none" stroke="#c9a84c" stroke-width="3" opacity="0.5"/>
  <circle cx="920" cy="250" r="220" fill="none" stroke="#c9a84c" stroke-width="2" opacity="0.3"/>
  <circle cx="920" cy="250" r="270" fill="none" stroke="#c9a84c" stroke-width="1.5" opacity="0.18"/>
  <path d="M845 205 q-20 -45 25 -65 l25 -10 q20 25 12 50 l-15 12 q-5 35 25 65 q30 30 65 25 l12 -15 q25 -8 50 12 l-10 25 q-20 45 -65 25 q-60 -25 -95 -60 q-35 -35 -29 -64" fill="none" stroke="#f5efdf" stroke-width="9" stroke-linejoin="round" transform="rotate(8 920 230)"/>
  <circle cx="1040" cy="170" r="46" fill="none" stroke="#c9a84c" stroke-width="8"/>
  <path d="M1040 145 v32" stroke="#c9a84c" stroke-width="9" stroke-linecap="round"/>
  <circle cx="1040" cy="194" r="6" fill="#c9a84c"/>
  <g opacity="0.35" stroke="#f5efdf" stroke-width="3" fill="none" stroke-linecap="round">
    <path d="M120 360 h180"/>
    <path d="M120 320 h120"/>
    <path d="M120 400 h240"/>
  </g>
</svg>
