<svg xmlns="http://www.w3.org/2000/svg" viewBox="0 0 1200 500" role="img" aria-label="Companionship illustration">
  <defs>
    <linearGradient id="bg" x1="0" y1="0" x2="1" y2="1">
      <stop offset="0" stop-color="#22315e"/>
      <stop offset="1" stop-color="#101a3a"/>
    </linearGradient>
  </defs>
  <rect width="1200" height="500" fill="url(#bg)"/>
  <circle cx="920" cy="250" r="170" fill="none" stroke="#c9a84c" stroke-width="3" opacity="0.5"/>
  <circle cx="920" cy="250" r="220" fill="none" stroke="#c9a84c" stroke-width="2" opacity="0.3"/>
  <circle cx="920" cy="250" r="270" fill="none" stroke="#c9a84c" stroke-width="1.5" opacity="0.18"/>

  <path d="M830 260 h110 v60 q0 40 -55 40 q-55 0 -55 -40 z" fill="#f5efdf" opacity="0.92"/>
  <path d="M940 275 q35 0 35 25 q0 25 -35 25" stroke="#c9a84c" stroke-width="8" fill="none"/>
  <path d="M985 260 h110 v60 q0 40 -55 40 q-55 0 -55 -40 z" fill="#c9a84c" opacity="0.9"/>
  <path d="M860 230 q-8 -15 4 -25 M895 230 q-8 -15 4 -25 M1015 230 q-8 -15 4 -25 M1050 230 q-8 -15 4 -25" stroke="#f5efdf" stroke-width="5" fill="none" stroke-linecap="round" opacity="0.7"/>

  <g opacity="0.35" stroke="#f5efdf" stroke-width="3" fill="none" stroke-linecap="round">
    <path d="M120 360 h180"/>
    <path d="M120 320 h120"/>
    <path d="M120 400 h240"/>
  </g>
</svg>
