<svg xmlns="http://www.w3.org/2000/svg" viewBox="0 0 1200 500" role="img" aria-label="Dementia support network illustration">
  <defs>
    <linearGradient id="bg" x1="0" y1="0" x2="1" y2="1">
      <stop offset="0" stop-color="#22315e"/>
      <stop offset="1" stop-color="#101a3a"/>
    </linearGradient>
  </defs>
  <rect width="1200" height="500" fill="url(#bg)"/>
  <circle cx="920" cy="250" r="180" fill="none" stroke="#c9a84c" stroke-width="3" opacity="0.45"/>

  <!-- two hands cradling a heart -->
  <path d="M830 330 q90 70 180 0" fill="none" stroke="#f5efdf" stroke-width="10" stroke-linecap="round"/>
  <path d="M810 300 q-15 25 20 45" fill="none" stroke="#f5efdf" stroke-width="10" stroke-linecap="round"/>
  <path d="M1030 300 q15 25 -20 45" fill="none" stroke="#f5efdf" stroke-width="10" stroke-linecap="round"/>
  <path d="M920 290 c-10 -28 -50 -40 -62 -12 c-10 24 18 48 62 74 c44 -26 72 -50 62 -74 c-12 -28 -52 -16 -62 12 z"
        fill="#c9a84c"/>
  <circle cx="920" cy="180" r="34" fill="none" stroke="#c9a84c" stroke-width="6" opacity="0.7"/>
  <circle cx="850" cy="150" r="20" fill="#f5efdf" opacity="0.85"/>
  <circle cx="990" cy="150" r="20" fill="#f5efdf" opacity="0.85"/>

  <g opacity="0.35" stroke="#f5efdf" stroke-width="3" fill="none" stroke-linecap="round">
    <path d="M120 360 h180"/>
    <path d="M120 320 h120"/>
    <path d="M120 400 h240"/>
  </g>
</svg>
