<svg xmlns="http://www.w3.org/2000/svg" viewBox="0 0 1200 500" role="img" aria-label="Executor duties illustration">
  <defs>
    <linearGradient id="bg" x1="0" y1="0" x2="1" y2="1">
      <stop offset="0" stop-color="#22315e"/>
      <stop offset="1" stop-color="#101a3a"/>
    </linearGradient>
  </defs>
  <rect width="1200" height="500" fill="url(#bg)"/>
  <circle cx="920" cy="250" r="170" fill="none" stroke="#c9a84c" stroke-width="3" opacity="0.5"/>
  <circle cx="920" cy="250" r="220" fill="none" stroke="#c9a84c" stroke-width="2" opacity="0.3"/>
  <circle cx="920" cy="250" r="270" fill="none" stroke="#c9a84c" stroke-width="1.5" opacity="0.18"/>

  <rect x="850" y="160" width="150" height="200" rx="10" fill="#f5efdf" opacity="0.92"/>
  <path d="M875 200 h100 M875 230 h100 M875 260 h70" stroke="#22315e" stroke-width="8" stroke-linecap="round"/>
  <circle cx="965" cy="320" r="22" fill="none" stroke="#c9a84c" stroke-width="7"/>
  <path d="M958 340 l-8 28 14 -9 14 9 -8 -28" fill="#c9a84c"/>
  <path d="M1020 300 l45 -45 18 18 -45 45 -22 4z" fill="#c9a84c" opacity="0.9"/>

  <g opacity="0.35" stroke="#f5efdf" stroke-width="3" fill="none" stroke-linecap="round">
    <path d="M120 360 h180"/>
    <path d="M120 320 h120"/>
    <path d="M120 400 h240"/>
  </g>
</svg>
