<svg xmlns="http://www.w3.org/2000/svg" viewBox="0 0 1200 500" role="img" aria-label="Hearing support illustration">
  <defs>
    <linearGradient id="bg" x1="0" y1="0" x2="1" y2="1">
      <stop offset="0" stop-color="#22315e"/>
      <stop offset="1" stop-color="#101a3a"/>
    </linearGradient>
  </defs>
  <rect width="1200" height="500" fill="url(#bg)"/>
  <circle cx="920" cy="250" r="170" fill="none" stroke="#c9a84c" stroke-width="3" opacity="0.5"/>
  <circle cx="920" cy="250" r="220" fill="none" stroke="#c9a84c" stroke-width="2" opacity="0.3"/>
  <circle cx="920" cy="250" r="270" fill="none" stroke="#c9a84c" stroke-width="1.5" opacity="0.18"/>

  <path d="M880 300 q-20 -20 -20 -60 q0 -70 60 -70 q60 0 60 60 q0 35 -30 55 q-25 17 -25 45 q0 30 -30 30 q-25 0 -28 -25" stroke="#f5efdf" stroke-width="12" fill="none" stroke-linecap="round"/>
  <path d="M1010 200 q20 25 0 50" stroke="#c9a84c" stroke-width="8" fill="none" stroke-linecap="round"/>
  <path d="M1040 180 q35 45 0 90" stroke="#c9a84c" stroke-width="8" fill="none" stroke-linecap="round" opacity="0.7"/>

  <g opacity="0.35" stroke="#f5efdf" stroke-width="3" fill="none" stroke-linecap="round">
    <path d="M120 360 h180"/>
    <path d="M120 320 h120"/>
    <path d="M120 400 h240"/>
  </g>
</svg>
