<svg xmlns="http://www.w3.org/2000/svg" viewBox="0 0 1200 500" role="img" aria-label="Signed documents and pen illustration">
  <defs>
    <linearGradient id="bg" x1="0" y1="0" x2="1" y2="1">
      <stop offset="0" stop-color="#22315e"/>
      <stop offset="1" stop-color="#101a3a"/>
    </linearGradient>
  </defs>
  <rect width="1200" height="500" fill="url(#bg)"/>
  <g transform="rotate(-4 900 250)">
    <rect x="790" y="110" width="240" height="300" rx="8" fill="#e9e2cf" opacity="0.85"/>
  </g>
  <g transform="rotate(2 880 260)">
    <rect x="770" y="120" width="240" height="300" rx="8" fill="#f5efdf"/>
    <g stroke="#22315e" stroke-width="5" stroke-linecap="round" opacity="0.7">
      <path d="M800 170 h180"/>
      <path d="M800 205 h150"/>
      <path d="M800 240 h180"/>
      <path d="M800 275 h120"/>
    </g>
    <path d="M800 355 q30 -28 55 -6 q20 16 45 -8" fill="none" stroke="#b23a48" stroke-width="5" stroke-linecap="round"/>
  </g>
  <path d="M1010 330 l70 -90 l24 18 l-70 90 l-32 14 z" fill="#c9a84c"/>
  <g opacity="0.35" stroke="#f5efdf" stroke-width="3" fill="none" stroke-linecap="round">
    <path d="M120 340 h200"/>
    <path d="M120 300 h140"/>
    <path d="M120 380 h260"/>
  </g>
  <circle cx="320" cy="150" r="46" fill="none" stroke="#c9a84c" stroke-width="2.5" opacity="0.5"/>
  <path d="M300 150 l14 14 l26 -28" fill="none" stroke="#c9a84c" stroke-width="5" stroke-linecap="round" stroke-linejoin="round" opacity="0.7"/>
</svg>
