<svg xmlns="http://www.w3.org/2000/svg" viewBox="0 0 1200 500" role="img" aria-label="Seasonal home maintenance illustration">
  <defs>
    <linearGradient id="bg" x1="0" y1="0" x2="1" y2="1">
      <stop offset="0" stop-color="#22315e"/>
      <stop offset="1" stop-color="#101a3a"/>
    </linearGradient>
  </defs>
  <rect width="1200" height="500" fill="url(#bg)"/>
  <circle cx="920" cy="250" r="170" fill="none" stroke="#c9a84c" stroke-width="3" opacity="0.5"/>
  <circle cx="920" cy="250" r="220" fill="none" stroke="#c9a84c" stroke-width="2" opacity="0.3"/>
  <circle cx="920" cy="250" r="270" fill="none" stroke="#c9a84c" stroke-width="1.5" opacity="0.18"/>

  <path d="M830 260 l90 -70 90 70 v100 h-180 z" fill="#f5efdf" opacity="0.92"/>
  <rect x="895" y="300" width="50" height="60" rx="4" fill="#22315e"/>
  <path d="M815 265 l105 -82 105 82" stroke="#c9a84c" stroke-width="10" fill="none" stroke-linecap="round" stroke-linejoin="round"/>
  <circle cx="1055" cy="165" r="22" fill="none" stroke="#c9a84c" stroke-width="6"/>
  <path d="M1055 130 v-12 M1055 212 v-12 M1090 165 h12 M1008 165 h12" stroke="#c9a84c" stroke-width="5" stroke-linecap="round"/>
  <path d="M790 150 v40 M770 170 h40 M776 156 l28 28 M804 156 l-28 28" stroke="#f5efdf" stroke-width="5" stroke-linecap="round" opacity="0.8"/>

  <g opacity="0.35" stroke="#f5efdf" stroke-width="3" fill="none" stroke-linecap="round">
    <path d="M120 360 h180"/>
    <path d="M120 320 h120"/>
    <path d="M120 400 h240"/>
  </g>
</svg>
