<svg xmlns="http://www.w3.org/2000/svg" viewBox="0 0 560 420" role="img" aria-label="Illustration of a path of footsteps leading past a signpost toward a home">
  <defs>
    <linearGradient id="bg" x1="0" y1="0" x2="1" y2="1">
      <stop offset="0" stop-color="#22315e"/>
      <stop offset="1" stop-color="#101a3a"/>
    </linearGradient>
  </defs>
  <rect width="560" height="420" fill="url(#bg)"/>

  <circle cx="400" cy="185" r="108" fill="none" stroke="#c9a84c" stroke-width="3" opacity="0.5"/>
  <circle cx="400" cy="185" r="144" fill="none" stroke="#c9a84c" stroke-width="2" opacity="0.3"/>
  <circle cx="400" cy="185" r="180" fill="none" stroke="#c9a84c" stroke-width="1.5" opacity="0.18"/>

  <path d="M60 396 C 180 372, 145 302, 252 272 C 342 248, 352 226, 382 204"
        stroke="#f5efdf" stroke-width="10" fill="none"
        stroke-linecap="round" stroke-dasharray="0.1 26" opacity="0.85"/>

  <g>
    <path d="M368 180 L400 148 L432 180" stroke="#f5efdf" stroke-width="8" fill="none" stroke-linecap="round" stroke-linejoin="round"/>
    <path d="M376 180 h48 v42 h-48 z" fill="#f5efdf" opacity="0.92"/>
    <path d="M394 222 v-20 q0 -6 6 -6 q6 0 6 6 v20" fill="#c9a84c"/>
  </g>

  <g>
    <rect x="176" y="148" width="9" height="196" rx="4" fill="#f5efdf" opacity="0.92"/>
    <circle cx="180.5" cy="142" r="7" fill="#c9a84c" opacity="0.9"/>
    <path d="M140 158 h92 l17 13 l-17 13 h-92 z" fill="#c9a84c" opacity="0.9"/>
    <path d="M226 210 h-92 l-17 13 l17 13 h92 z" fill="#f5efdf" opacity="0.92"/>
  </g>

  <g opacity="0.35" stroke="#f5efdf" stroke-width="3" fill="none" stroke-linecap="round">
    <path d="M40 356 h120"/>
    <path d="M40 380 h170"/>
    <path d="M40 402 h84"/>
  </g>
</svg>
